<svg version="1.1" viewBox="0 0 512 512" xmlns="http://www.w3.org/2000/svg"><g id="Flat"><path d="m80 128h96v48h-96z" fill="#85ccd5"/><path d="m272 72h-32l-8-8h-56v-32h56a40 40 0 0 1 40 40z" fill="#85ccd5"/><path d="m112 72h32v56h-32z" fill="#7fc6ce"/><path d="m112 72h32v16h-32z" fill="#78b9c1"/><path d="m176 176h-96a77.212 77.212 0 0 0-56 74.241v213.76a24 24 0 0 0 24 24h160a24 24 0 0 0 24-24v-213.76a77.212 77.212 0 0 0-56-74.241z" fill="#4db6e4"/><path d="m64.976 241.83-15.576-3.66a53.285 53.285 0 0 1 32.84-37.642l5.715 14.944a37.3 37.3 0 0 0-22.979 26.358z" fill="#5cc1ed"/><path d="m80 24h96v48h-96z" fill="#85ccd5"/><path d="m280 158.65v1.352a24 24 0 0 1-24 24 24 24 0 0 1-24-24v-1.352a24 24 0 0 1 3.42-12.348l20.58-34.3 20.58 34.3a24 24 0 0 1 3.42 12.348z" fill="#4db6e4"/><path d="m112 176h32v80h-32z" fill="#3ba5d3"/><path d="m24 256h208v184h-208z" fill="#85ccd5"/><path d="m89.886 341.87 88.18 84.739a48 48 0 0 0 33.259 13.391h276.68v-128l-21.428-15.306a132.58 132.58 0 0 0-77.058-24.694 132.58 132.58 0 0 0-41.924 6.8l-27.59 9.2h-84a28 28 0 0 0-28 28 28 28 0 0 0 28 28h68.472a15.525 15.525 0 0 1 15.528 15.519v0.5a15.977 15.977 0 0 1-15.977 15.981h-88.023l-83.852-79.82a31.12 31.12 0 0 0-40.951-0.967 31.12 31.12 0 0 0-1.311 46.657z" fill="#fdc8a2"/></g></svg>
