<svg id="Flat" version="1.1" viewBox="0 0 512 512" xmlns="http://www.w3.org/2000/svg"><path d="m456 104v288a32 32 0 0 1-32 32h-256a32 32 0 0 1-32-32v-336a32 32 0 0 1 32-32h208z" fill="#e1e3e6"/><path d="m456 104h-48a32 32 0 0 1-32-32v-48z" fill="#c3c6c7"/><path d="m392 168v288a32 32 0 0 1-32 32h-256a32 32 0 0 1-32-32v-336a32 32 0 0 1 32-32h208z" fill="#e9eef2"/><g fill="#c3c6c7"><path d="m392 168h-48a32 32 0 0 1-32-32v-48z"/><path d="m344 224h-144a8 8 0 0 1 0-16h144a8 8 0 0 1 0 16z"/><path d="m248 272h-128a8 8 0 0 1 0-16h128a8 8 0 0 1 0 16z"/><path d="m344 320h-96a8 8 0 0 1 0-16h96a8 8 0 0 1 0 16z"/><path d="m264 368h-144a8 8 0 0 1 0-16h144a8 8 0 0 1 0 16z"/><path d="m168 224h-48a8 8 0 0 1 0-16h48a8 8 0 0 1 0 16z"/><path d="m344 272h-64a8 8 0 0 1 0-16h64a8 8 0 0 1 0 16z"/><path d="m216 320h-96a8 8 0 0 1 0-16h96a8 8 0 0 1 0 16z"/><path d="m344 368h-48a8 8 0 0 1 0-16h48a8 8 0 0 1 0 16z"/><path d="m168 416h-48a8 8 0 0 1 0-16h48a8 8 0 0 1 0 16z"/><path d="m216 176h-96a8 8 0 0 1 0-16h96a8 8 0 0 1 0 16z"/><path d="m280 416h-80a8 8 0 0 1 0-16h80a8 8 0 0 1 0 16z"/><path d="m344 416h-32a8 8 0 0 1 0-16h32a8 8 0 0 1 0 16z"/></g></svg>
