<svg enable-background="new 0 0 468.134 468.134" version="1.1" viewBox="0 0 468.13 468.13" xmlns="http://www.w3.org/2000/svg"><path d="m28.06 363.05-18.743 60.937-8.763 28.468c-2.859 9.288 5.842 17.989 15.13 15.129l28.467-8.763 60.939-18.743-77.03-77.028z" fill="#DC8744"/><path d="m44.151 458.82-28.467 8.763c-9.288 2.859-17.988-5.841-15.129-15.129l8.763-28.468 34.833 34.834z" fill="#3A556A"/><rect transform="matrix(-.7071 .7071 -.7071 -.7071 511.57 231.77)" x="-19.151" y="194.6" width="453.87" height="54.465" fill="#FCD462"/><rect transform="matrix(-.7071 .7071 -.7071 -.7071 604.54 270.28)" x="19.36" y="233.12" width="453.87" height="54.465" fill="#F6C358"/><path d="m426.04 119.12-77.029-77.028 38.436-38.436c4.877-4.877 12.784-4.877 17.66 0l59.368 59.368c4.877 4.877 4.877 12.784 0 17.66l-38.435 38.436z" fill="#E56353"/><g fill="#EBF0F3"><rect transform="matrix(-.7071 .7071 -.7071 -.7071 692.31 -73.085)" x="352.21" y="52.373" width="18.157" height="108.94"/><rect transform="matrix(-.7071 .7071 -.7071 -.7071 666.6 -11.111)" x="326.52" y="78.036" width="18.157" height="108.94"/></g></svg>
