<svg xmlns:dc="http://purl.org/dc/elements/1.1/" xmlns:cc="http://creativecommons.org/ns#" xmlns:rdf="http://www.w3.org/1999/02/22-rdf-syntax-ns#" xmlns:svg="http://www.w3.org/2000/svg" xmlns="http://www.w3.org/2000/svg" xmlns:sodipodi="http://sodipodi.sourceforge.net/DTD/sodipodi-0.dtd" xmlns:inkscape="http://www.inkscape.org/namespaces/inkscape" inkscape:version="1.0rc1 (09960d6, 2020-04-09)" sodipodi:docname="logo.svg" id="svg955" version="1.1" fill="#57586E" viewBox="0 0 805 135" height="24" width="143" role="img" aria-labelledby="ah4jq2cv4267m92gnl6utt1yqvoby1y1" class="fill-current text-gray-500"><title id="ah4jq2cv4267m92gnl6utt1yqvoby1y1">Logo</title>
  <metadata id="metadata961">
    <rdf:rdf>
      <cc:work rdf:about="">
        <dc:format>image/svg+xml</dc:format>
        <dc:type rdf:resource="http://purl.org/dc/dcmitype/StillImage"></dc:type>
      </cc:work>
    </rdf:rdf>
  </metadata>
  <defs id="defs959"></defs>
  <sodipodi:namedview inkscape:current-layer="svg955" inkscape:window-maximized="1" inkscape:window-y="23" inkscape:window-x="0" inkscape:cy="11.990683" inkscape:cx="88.685607" inkscape:zoom="10.153846" showgrid="false" id="namedview957" inkscape:window-height="987" inkscape:window-width="1920" inkscape:pageshadow="2" inkscape:pageopacity="0" guidetolerance="10" gridtolerance="10" objecttolerance="10" borderopacity="1" bordercolor="#666666" pagecolor="#ffffff" inkscape:document-rotation="0"></sodipodi:namedview>
  <rect id="rect949" fill="none" height="135" width="805" x="0" y="-0.052447554"></rect>
  <text id="text965" y="101.73115" x="137.22043" style="font-style:normal;font-weight:normal;font-size:135.999px;line-height:1.25;font-family:sans-serif;fill:#57586e;fill-opacity:1;stroke:none;stroke-width:3.39994" xml:space="preserve"><tspan style="font-style:normal;font-variant:normal;font-weight:normal;font-stretch:normal;font-family:'Lato Black';-inkscape-font-specification:'Lato Black, ';fill:#57586e;fill-opacity:1;stroke-width:3.39994" y="101.73115" x="137.22043" id="tspan963" sodipodi:role="line">scan menu</tspan></text>
  <g id="g907" transform="translate(-0.13193825,-2.578637)" style="stroke:#000000;stroke-opacity:1;fill:#57586e;fill-opacity:1">
    <path style="stroke:#000000;stroke-width:0.263877;stroke-opacity:1;fill:#57586e;fill-opacity:1" id="path864" d="m 90.151645,31.816507 h 12.553935 c 1.71441,0 3.109,1.394588 3.109,3.108995 v 12.553673 c 0,2.185955 1.77219,3.958151 3.95815,3.958151 2.18595,0 3.95815,-1.772196 3.95815,-3.958151 V 34.925502 c 0,-6.079456 -4.94611,-11.025298 -11.0253,-11.025298 H 90.151645 c -2.185955,0 -3.958152,1.772196 -3.958152,3.958151 0,2.185955 1.772197,3.958152 3.958152,3.958152 z" inkscape:connector-curvature="0"></path>
    <path style="stroke:#000000;stroke-width:0.263877;stroke-opacity:1;fill:#57586e;fill-opacity:1" id="path866" d="m 21.374017,34.925502 v 12.553673 c 0,2.185955 1.772196,3.958151 3.958151,3.958151 2.185955,0 3.958151,-1.772196 3.958151,-3.958151 V 34.925502 c 0,-1.714407 1.394853,-3.108995 3.108996,-3.108995 h 12.553936 c 2.185955,0 3.958152,-1.772197 3.958152,-3.958152 0,-2.185955 -1.772197,-3.958151 -3.958152,-3.958151 H 32.399315 c -6.079192,0 -11.025298,4.945842 -11.025298,11.025298 z" inkscape:connector-curvature="0"></path>
    <path style="stroke:#000000;stroke-width:0.263877;stroke-opacity:1;fill:#57586e;fill-opacity:1" id="path868" d="M 44.953251,108.34076 H 32.399315 c -1.714407,0 -3.108996,-1.39458 -3.108996,-3.10899 V 92.678096 c 0,-2.185955 -1.772196,-3.958152 -3.958151,-3.958152 -2.185955,0 -3.958151,1.772197 -3.958151,3.958152 v 12.553674 c 0,6.07945 4.946106,11.0253 11.025298,11.0253 h 12.553936 c 2.185955,0 3.958152,-1.7722 3.958152,-3.95815 0,-2.18596 -1.772197,-3.95816 -3.958152,-3.95816 z" inkscape:connector-curvature="0"></path>
    <path style="stroke:#000000;stroke-width:0.263877;stroke-opacity:1;fill:#57586e;fill-opacity:1" id="path870" d="M 113.73088,105.23177 V 92.678096 c 0,-2.185955 -1.7722,-3.958152 -3.95815,-3.958152 -2.18596,0 -3.95815,1.772197 -3.95815,3.958152 v 12.553674 c 0,1.71441 -1.39486,3.10899 -3.109,3.10899 H 90.151645 c -2.185955,0 -3.958152,1.7722 -3.958152,3.95816 0,2.18595 1.772197,3.95815 3.958152,3.95815 h 12.553935 c 6.07919,0 11.0253,-4.94585 11.0253,-11.0253 z" inkscape:connector-curvature="0"></path>
    <path style="stroke:#000000;stroke-width:0.263877;stroke-opacity:1;fill:#57586e;fill-opacity:1" id="path872" d="m 0.26387675,70.342512 c 0,2.185955 1.77219625,3.958151 3.95815125,3.958151 H 130.88287 c 2.18595,0 3.95815,-1.772196 3.95815,-3.958151 0,-2.185955 -1.7722,-3.958151 -3.95815,-3.958151 H 4.222028 c -2.185955,0 -3.95815125,1.772196 -3.95815125,3.958151 z" inkscape:connector-curvature="0"></path>
  </g>
</svg>